<?xml version="1.0" encoding="iso-8859-1"?>
<!-- Uploaded to: SVG Repo, www.svgrepo.com, Generator: SVG Repo Mixer Tools -->
<svg version="1.1" id="Layer_1" xmlns="http://www.w3.org/2000/svg" xmlns:xlink="http://www.w3.org/1999/xlink" 
	 viewBox="0 0 511.985 511.985" xml:space="preserve">
<path style="fill:#FFCE54;" d="M464.127,192.854L266.547,74.849c-3.297-1.969-7.398-2.016-10.742-0.117L48.06,192.737
	c-3.336,1.898-5.398,5.437-5.398,9.273v256.649c0,5.891,4.781,10.656,10.672,10.656h405.308c5.906,0,10.688-4.766,10.688-10.656
	V202.01C469.33,198.26,467.346,194.776,464.127,192.854z"/>
<path style="fill:#ED5564;" d="M506.25,171.878L260.93,43.882c-3.094-1.617-6.781-1.617-9.875,0L5.733,171.878
	C2.21,173.714,0,177.355,0,181.331v42.663c0,3.734,1.944,7.195,5.14,9.125c3.188,1.93,7.156,2.062,10.461,0.336l240.391-125.427
	L496.39,233.454c1.531,0.805,3.234,1.211,4.938,1.211c1.906,0,3.812-0.523,5.516-1.547c3.203-1.93,5.141-5.39,5.141-9.125V181.33
	C511.984,177.354,509.765,173.714,506.25,171.878z"/>
<path style="fill:#E6E9ED;" d="M415.987,277.32H95.997c-5.891,0-10.664,4.781-10.664,10.672v170.667
	c0,5.891,4.773,10.656,10.664,10.656h319.99c5.89,0,10.655-4.766,10.655-10.656V287.992
	C426.642,282.101,421.877,277.32,415.987,277.32z"/>
<g>
	<path style="fill:#CCD1D9;" d="M374.144,341.318H138.659c-5.89,0-10.663-4.765-10.663-10.655s4.773-10.672,10.663-10.672h235.485
		c5.891,0,10.672,4.781,10.672,10.672S380.035,341.318,374.144,341.318z"/>
	<path style="fill:#CCD1D9;" d="M374.144,383.989H138.659c-5.89,0-10.663-4.781-10.663-10.672s4.773-10.656,10.663-10.656h235.485
		c5.891,0,10.672,4.766,10.672,10.656S380.035,383.989,374.144,383.989z"/>
	<path style="fill:#CCD1D9;" d="M374.144,426.66H138.659c-5.89,0-10.663-4.781-10.663-10.672c0-5.89,4.773-10.671,10.663-10.671
		h235.485c5.891,0,10.672,4.781,10.672,10.671C384.816,421.879,380.035,426.66,374.144,426.66z"/>
</g>
<rect x="181.332" y="181.332" style="fill:#5D9CEC;" width="149.32" height="63.998"/>
<path style="fill:#656D78;" d="M479.985,469.315H31.999c-5.891,0-10.664-4.766-10.664-10.656s4.773-10.672,10.664-10.672h447.986
	c5.891,0,10.655,4.781,10.655,10.672S485.876,469.315,479.985,469.315z"/>
<path style="fill:#E6E9ED;" d="M330.646,170.667H181.33c-5.891,0-10.672,4.773-10.672,10.664v63.998
	c0,5.891,4.781,10.664,10.672,10.664h149.316c5.906,0,10.687-4.773,10.687-10.664v-63.998
	C341.333,175.44,336.553,170.667,330.646,170.667z M245.328,234.665h-53.334v-42.67h53.334V234.665z M319.99,234.665h-53.334v-42.67
	h53.334V234.665z"/>
</svg>